<?xml version="1.0" encoding="UTF-8"?>
<svg version="1.1" xmlns="http://www.w3.org/2000/svg" width="1024" height="1024">
<path d="M0 0 C337.92 0 675.84 0 1024 0 C1024 337.92 1024 675.84 1024 1024 C686.08 1024 348.16 1024 0 1024 C0 686.08 0 348.16 0 0 Z " fill="#010101" transform="translate(0,0)"/>
<path d="M0 0 C22.04585581 11.34034206 41.27710535 25.63768935 54.984375 46.53515625 C55.850625 47.84033203 55.850625 47.84033203 56.734375 49.171875 C60.51484678 55.22231755 63.30255809 61.43806591 65.796875 68.09765625 C66.08691406 68.86456787 66.37695312 69.63147949 66.67578125 70.42163086 C70.27780937 80.44720499 71.28316237 90.25022035 71.2590332 100.8527832 C71.26414413 102.03159058 71.26925507 103.21039795 71.27452087 104.42492676 C71.28833078 108.2911498 71.28746647 112.15719284 71.28515625 116.0234375 C71.28747093 118.04622656 71.29097513 120.06901132 71.294563 122.09179848 C71.3056134 128.44362266 71.3061212 134.79538769 71.30004883 141.1472168 C71.29401556 147.66207117 71.3063138 154.17670922 71.3276189 160.69152671 C71.34533401 166.31911079 71.35122069 171.94662665 71.34798115 177.57423753 C71.34618349 180.92027026 71.34999961 184.26602668 71.36269569 187.61205482 C71.45078406 214.07374916 71.45078406 214.07374916 67.984375 225.53515625 C67.79239532 226.26047546 67.60041565 226.98579468 67.40261841 227.73309326 C60.46522687 253.20833014 42.73386457 276.18920228 19.984375 289.53515625 C-2.38037486 302.04624073 -23.41679153 305.68856935 -48.7195282 305.67559814 C-50.73862111 305.67818429 -52.75771352 305.68119815 -54.77680522 305.68460155 C-60.31202625 305.69264522 -65.84723429 305.69445964 -71.38246047 305.69519901 C-77.35740941 305.69705412 -83.33235169 305.70460365 -89.30729675 305.71133423 C-103.04560451 305.72560529 -116.78391128 305.73144117 -130.52222476 305.73602617 C-137.31629576 305.73836539 -144.11036593 305.74196835 -150.90443628 305.74572155 C-174.17760856 305.75855278 -197.45078037 305.76927316 -220.72395611 305.77272415 C-222.18355699 305.77294578 -223.64315787 305.77316757 -225.10275875 305.7733895 C-226.5658008 305.77361014 -228.02884284 305.77383062 -229.49188489 305.77405095 C-232.42680021 305.77449349 -235.36171554 305.77494061 -238.29663086 305.77539062 C-239.02431353 305.77550002 -239.7519962 305.77560941 -240.50172986 305.77572211 C-264.09595346 305.77935261 -287.69014634 305.79527459 -311.28435817 305.81858099 C-336.25119144 305.84319804 -361.21800715 305.85689782 -386.1848529 305.85809207 C-388.92745801 305.85826351 -391.67006312 305.85847894 -394.41266823 305.8587265 C-395.42556931 305.85881015 -395.42556931 305.85881015 -396.45893304 305.8588955 C-407.30658779 305.86004417 -418.15421088 305.87105031 -429.00185495 305.88561356 C-439.91172649 305.90000674 -450.82155569 305.90294786 -461.73143401 305.89517358 C-467.63705359 305.89127165 -473.54256706 305.89217454 -479.44817352 305.90623093 C-484.86110837 305.91899661 -490.27385766 305.91774884 -495.68679235 305.90564021 C-497.63829697 305.90368788 -499.58981485 305.90674008 -501.54130086 305.91548458 C-516.24159239 305.97715187 -529.71221081 304.65630295 -543.578125 299.34765625 C-544.37331543 299.04794922 -545.16850586 298.74824219 -545.98779297 298.43945312 C-557.03002465 294.13526798 -566.99427847 288.25360264 -576.015625 280.53515625 C-576.81355469 279.87 -577.61148438 279.20484375 -578.43359375 278.51953125 C-598.33803177 261.36159708 -612.38166387 236.93406064 -615.015625 210.53515625 C-615.17588208 206.70978038 -615.19316734 202.88648949 -615.20849609 199.05810547 C-615.21667358 197.92038696 -615.22485107 196.78266846 -615.23327637 195.61047363 C-615.25803652 191.85360218 -615.27462945 188.0967685 -615.2890625 184.33984375 C-615.29438618 183.04856693 -615.29970985 181.75729012 -615.30519485 180.4268837 C-615.32641011 174.98796882 -615.34553532 169.549066 -615.35681725 164.11012077 C-615.37297134 156.37872851 -615.40595226 148.64784544 -615.46321809 140.91664493 C-615.5023071 135.44785624 -615.52149598 129.97920135 -615.52673781 124.51027691 C-615.53034257 121.26160354 -615.54445291 118.01358972 -615.57484055 114.76504135 C-615.86788119 81.52070308 -607.87255583 50.81810371 -584.015625 26.53515625 C-580.52543626 23.25295841 -576.89190212 20.34775838 -573.015625 17.53515625 C-572.46036133 17.12813477 -571.90509766 16.72111328 -571.33300781 16.30175781 C-558.20033341 6.77497973 -542.78520515 -2.56104127 -526.015625 -0.46484375 C-521.7942768 1.45278089 -518.89033738 3.75686309 -516.83203125 7.94140625 C-512.78995221 20.78322675 -518.67083411 35.73277471 -524.59301758 47.10986328 C-525.32400514 48.49052499 -526.05845262 49.86935902 -526.79589844 51.24658203 C-538.52392428 73.25188912 -549.14356939 94.70640686 -544.296875 120.3359375 C-542.03224085 127.5224983 -539.0622432 133.92773887 -532.453125 137.91015625 C-528.18907802 139.92588755 -524.98552224 140.65926601 -520.29420471 140.66645813 C-519.34827957 140.67046631 -518.40235443 140.67447449 -517.42776489 140.67860413 C-516.39658539 140.67807541 -515.36540588 140.67754669 -514.30297852 140.67700195 C-512.6655645 140.68221359 -512.6655645 140.68221359 -510.99507141 140.68753052 C-508.62262545 140.69488447 -506.25017262 140.70023178 -503.87771797 140.70382118 C-500.11421793 140.71099528 -496.35084761 140.72667132 -492.58738708 140.74516296 C-481.88582766 140.79757236 -471.18434963 140.84598852 -460.48266602 140.86108398 C-453.93565342 140.87041365 -447.38891005 140.90063985 -440.84202385 140.94240379 C-438.35477092 140.95466393 -435.86747203 140.95984424 -433.3801899 140.95760536 C-402.6984399 140.93679304 -402.6984399 140.93679304 -392.015625 149.53515625 C-391.07235352 150.263396 -390.12908203 150.99163574 -389.15722656 151.74194336 C-385.82754795 154.53066703 -383.53241102 157.65783001 -381.1875 161.2890625 C-380.7614447 161.93903702 -380.3353894 162.58901154 -379.89642334 163.25868225 C-375.11824514 170.70139213 -371.18370096 178.55453999 -367.265625 186.47265625 C-361.09443906 199.09054272 -361.09443906 199.09054272 -353.015625 210.53515625 C-352.11931831 211.72229901 -351.22343159 212.90975907 -350.328125 214.09765625 C-343.18139549 222.27067851 -331.68576195 227.87531728 -321.015625 229.53515625 C-317.62157527 229.69622528 -314.22946824 229.70266324 -310.83203125 229.7121582 C-309.29681068 229.722015 -309.29681068 229.722015 -307.73057556 229.73207092 C-304.34642456 229.75176472 -300.96231794 229.76345999 -297.578125 229.7734375 C-296.41845215 229.77751303 -295.2587793 229.78158855 -294.06396484 229.78578758 C-287.92171406 229.80663507 -281.77948552 229.82094059 -275.63720703 229.83032227 C-269.3171366 229.84136302 -262.99742053 229.8757402 -256.67747498 229.91549397 C-251.79758078 229.94174111 -246.91776984 229.95002147 -242.03781128 229.95360374 C-239.709601 229.95845145 -237.38139398 229.97001307 -235.05325317 229.98864174 C-217.0982353 230.12334005 -200.63135647 229.02615547 -186.328125 216.66015625 C-180.05056834 209.83089034 -176.68463165 200.17742031 -172.859375 191.83203125 C-164.5544351 173.80733117 -154.96960725 153.35694799 -136.015625 144.53515625 C-128.57425348 142.01318284 -121.7599834 141.10969388 -113.93554688 141.19799805 C-112.36493248 141.19716721 -112.36493248 141.19716721 -110.7625885 141.19631958 C-108.50920153 141.19657773 -106.25580739 141.20337802 -104.00245667 141.21616173 C-100.42784617 141.23466765 -96.85381678 141.2318304 -93.2791748 141.22309875 C-83.1230352 141.20137938 -72.96712348 141.21221662 -62.81103516 141.25024414 C-56.58008845 141.27208984 -50.34971597 141.26476038 -44.11878967 141.23978615 C-41.75544756 141.23620589 -39.39205973 141.24378325 -37.02879333 141.26303673 C-19.87099807 141.9672402 -19.87099807 141.9672402 -5.015625 134.53515625 C2.60265067 126.5060846 2.32447694 117.2721181 2.296875 106.72265625 C2.31298828 105.50255859 2.32910156 104.28246094 2.34570312 103.02539062 C2.35533831 85.09430762 -5.90105155 74.01098137 -15.9140625 59.9140625 C-37.53174447 29.43326511 -37.53174447 29.43326511 -36.015625 10.53515625 C-34.39867431 5.09296221 -30.49565296 1.73517622 -26.015625 -1.46484375 C-17.24288771 -5.61727273 -8.51402435 -3.95924189 0 0 Z " fill="#FDFDFD" transform="translate(774.015625,487.46484375)"/>
<path d="M0 0 C10.90311974 8.2845334 16.72476965 17.17430896 21 30 C21.22692934 33.05839724 21.18516135 36.12153321 21.1875 39.1875 C21.19974609 40.01314453 21.21199219 40.83878906 21.22460938 41.68945312 C21.25999555 56.65780725 13.75196679 69.7283663 7.47103882 82.94903564 C5.6881174 86.70271512 3.91486441 90.4609611 2.140625 94.21875 C1.60866768 95.34466049 1.60866768 95.34466049 1.06596375 96.49331665 C-6.22906547 111.9450483 -13.31831491 127.49320813 -20.42602539 143.03173828 C-23.41760159 149.56584505 -26.42730479 156.09134854 -29.4453125 162.61328125 C-30.24463487 164.34154998 -31.04395122 166.06982148 -31.84326172 167.7980957 C-33.03058771 170.36516482 -34.21845673 172.93197428 -35.40826416 175.49789429 C-39.21896316 183.71602656 -43.00373041 191.93950557 -46.609375 200.25 C-52.01530662 212.70328025 -57.90962236 224.92448121 -63.76269531 237.17211914 C-71.1814175 252.70207562 -78.47015435 268.26201614 -85.359375 284.03515625 C-89.89009954 294.36131677 -94.77338883 304.52911926 -99.59262085 314.72280884 C-104.84785595 325.83930849 -110.09846668 336.95560463 -115.1640625 348.16015625 C-115.49940002 348.9015686 -115.83473755 349.64298096 -116.18023682 350.40686035 C-117.77773564 353.94303163 -119.36871995 357.48197307 -120.95117188 361.02490234 C-131.32448212 384.16224106 -131.32448212 384.16224106 -143 390 C-151.03939834 390.92312859 -157.15352291 390.4199607 -163.90234375 385.7890625 C-167.81175363 382.45477996 -170.35897615 378.92307155 -172 374 C-172.10045003 372.28392021 -172.1435852 370.5642316 -172.15390015 368.84524536 C-172.16680084 367.24382187 -172.16680084 367.24382187 -172.17996216 365.61004639 C-172.18422211 364.43822815 -172.18848206 363.26640991 -172.19287109 362.05908203 C-172.20104858 360.82441193 -172.20922607 359.58974182 -172.21765137 358.31765747 C-172.24254033 354.21437909 -172.25920119 350.11113784 -172.2734375 346.0078125 C-172.27880121 344.58834707 -172.28417873 343.16888168 -172.28956985 341.74941635 C-172.3112185 335.83027847 -172.32994185 329.91114326 -172.34119225 323.99197578 C-172.35733599 315.55659419 -172.39025401 307.1216803 -172.44759309 298.68647492 C-172.48664708 292.7336943 -172.5058675 286.7810367 -172.51111281 280.82813156 C-172.51472468 277.28657629 -172.52628593 273.74551959 -172.55921555 270.20410538 C-172.75372453 248.19772139 -170.65223672 229.0320286 -161.0625 209.0625 C-160.49222205 207.8370786 -159.92375457 206.61081332 -159.35693359 205.38378906 C-157.88531678 202.20956011 -156.391544 199.04632426 -154.89178467 195.88531494 C-153.4365094 192.80872897 -152.00173234 189.7226493 -150.56640625 186.63671875 C-148.84346969 182.93507998 -147.11883874 179.23429447 -145.38427734 175.53808594 C-140.9091145 165.99704995 -136.53380748 156.41283453 -132.1875 146.8125 C-128.02805705 137.62613809 -123.83637975 128.4612165 -119.4777832 119.3671875 C-115.83618352 111.73127869 -112.36312315 104.01926695 -108.875 96.3125 C-103.18142327 83.73617724 -97.3931946 71.20834815 -91.50561523 58.72167969 C-90.88776251 57.41085233 -90.27000489 56.09998014 -89.65234375 54.7890625 C-89.34928818 54.1458606 -89.0462326 53.50265869 -88.73399353 52.83996582 C-86.58502004 48.26905248 -84.47442282 43.68156862 -82.37890625 39.0859375 C-81.79325927 37.806338 -81.20748666 36.526796 -80.62158203 35.24731445 C-79.53498048 32.87431537 -78.45798478 30.49774076 -77.38623047 28.11791992 C-70.91558223 13.99385112 -63.10473495 3.14752685 -49 -4 C-48.19175781 -4.41507813 -47.38351562 -4.83015625 -46.55078125 -5.2578125 C-31.36822092 -11.90744842 -13.69534166 -8.27721036 0 0 Z " fill="#FDFDFD" transform="translate(454,167)"/>
<path d="M0 0 C4.63273961 3.34248099 7.4786999 8.07947298 10.4375 12.875 C11.37142578 14.32519531 11.37142578 14.32519531 12.32421875 15.8046875 C19.22779866 26.94883118 22.28207823 37.30293834 19.32389832 50.19532776 C17.06870931 59.47468407 13.69448792 67.82123182 9.625 76.4375 C9.02672593 77.73053346 8.42971932 79.02415411 7.83398438 80.31835938 C6.34763883 83.53878318 4.84497544 86.75125205 3.33612061 89.96118164 C2.14373475 92.50064037 0.95868245 95.04349016 -0.22636414 97.58638 C-2.73770608 102.97491348 -5.25740387 108.35949871 -7.78125 113.7421875 C-15.87102915 131.00912784 -23.80940302 148.34074976 -31.67578125 165.71044922 C-34.77799137 172.55962761 -37.888758 179.40492069 -41 186.25 C-41.30700836 186.92546875 -41.61401672 187.6009375 -41.93032837 188.296875 C-48.81294037 203.43785535 -55.71160096 218.57144094 -62.64453125 233.68945312 C-63.91022929 236.44995657 -65.17317585 239.21169121 -66.43359375 241.97460938 C-67.90489439 245.19947368 -69.3818892 248.42166859 -70.86322021 251.64193726 C-71.65500357 253.36671168 -72.44114943 255.09407069 -73.22705078 256.8215332 C-80.96520201 273.59353209 -89.42980855 286.45305577 -107.3125 293.3125 C-119.71119529 297.01767285 -132.20615696 295.39529362 -143.76171875 289.8125 C-145.81051154 288.6156393 -147.66710948 287.3029339 -149.5625 285.875 C-150.44808594 285.23691406 -151.33367187 284.59882812 -152.24609375 283.94140625 C-161.58475364 276.8328741 -168.84111445 267.76961904 -170.5625 255.875 C-170.79845091 252.87402194 -170.89567013 249.88458172 -170.9375 246.875 C-170.95159912 246.13950928 -170.96569824 245.40401855 -170.98022461 244.64624023 C-170.90156692 235.63844093 -167.7774717 227.77377248 -163.8125 219.8125 C-159.56732585 211.06259014 -155.51073175 202.23392576 -151.5 193.375 C-150.20214284 190.51157368 -148.90378597 187.648374 -147.60546875 184.78515625 C-147.11099747 183.69432236 -147.11099747 183.69432236 -146.60653687 182.58145142 C-142.85901839 174.31729395 -139.08710424 166.06431364 -135.3125 157.8125 C-134.97430237 157.07313202 -134.63610474 156.33376404 -134.28765869 155.57199097 C-132.64380216 151.97848885 -130.99955936 148.38516376 -129.35498047 144.79199219 C-127.75766592 141.30194532 -126.16190911 137.811188 -124.56640625 134.3203125 C-119.24270623 122.67952198 -113.87134493 111.06149501 -108.47680664 99.45336914 C-98.22923311 77.46130579 -98.22923311 77.46130579 -88.18847656 55.37451172 C-87.12150504 52.9921965 -86.0474986 50.61314808 -84.97265625 48.234375 C-83.3805256 44.70899139 -81.81297466 41.1736098 -80.25730896 37.63198853 C-79.14857535 35.1198339 -78.02331014 32.6152744 -76.89523315 30.11175537 C-76.08974103 28.31090323 -75.30342925 26.50150987 -74.51782227 24.69189453 C-68.14432499 10.62700739 -58.60556994 1.6370384 -44.5 -4.5625 C-30.78508799 -9.0755266 -12.64672093 -6.82097617 0 0 Z " fill="#FDFDFD" transform="translate(558.5625,298.125)"/>
<path d="M0 0 C2.28088548 1.68416501 4.30201583 3.44761298 6.33203125 5.42578125 C7.39357422 6.44671875 7.39357422 6.44671875 8.4765625 7.48828125 C18.97333486 18.39401877 21.6543446 31.40847514 21.59082031 46.10107422 C21.59607727 47.62516907 21.59607727 47.62516907 21.60144043 49.18005371 C21.6101792 52.50943006 21.60443553 55.83859056 21.59765625 59.16796875 C21.59900536 61.50147543 21.60094795 63.83498183 21.60345459 66.16848755 C21.60639541 71.04871305 21.60214254 75.9288651 21.59277344 80.80908203 C21.58139233 87.038206 21.58793663 93.26715733 21.59991837 99.49627495 C21.60717596 104.31264526 21.60483096 109.12897525 21.59966278 113.94534683 C21.5983364 116.24086656 21.59993822 118.53639004 21.60462189 120.83190536 C21.65055276 149.67229911 21.65055276 149.67229911 16.26953125 161.55078125 C15.96789062 162.2274585 15.66625 162.90413574 15.35546875 163.60131836 C12.386454 169.90070821 8.31823964 174.59230357 3.33203125 179.42578125 C2.79191406 180.05742188 2.25179687 180.6890625 1.6953125 181.33984375 C-3.48264773 187.26123908 -10.52020653 190.42631826 -17.66796875 193.42578125 C-18.24790085 193.68817093 -18.82783295 193.95056061 -19.42533875 194.22090149 C-27.02763399 197.2381597 -34.90249497 196.87988175 -42.9453125 196.859375 C-44.52275312 196.86394533 -46.10019176 196.86925341 -47.67762756 196.8752594 C-50.97160978 196.88415545 -54.26534909 196.88180761 -57.55932617 196.87182617 C-61.7565554 196.86033972 -65.95294284 196.88056032 -70.15006161 196.90974331 C-73.40427371 196.92819017 -76.6582872 196.92779611 -79.91253853 196.92210579 C-81.45892073 196.92195362 -83.0053173 196.92791095 -84.55164909 196.94039726 C-97.88370137 197.03290761 -106.70537215 195.10330354 -116.47265625 185.71875 C-124.4522841 177.38415649 -127.67585986 168.63350242 -127.4765625 156.98046875 C-126.33621198 147.85354032 -121.09826007 139.33962162 -117.04394531 131.22705078 C-115.22017017 127.51413453 -113.58864812 123.7356119 -111.98046875 119.92578125 C-109.8450495 114.96668261 -107.55592 110.11317415 -105.10546875 105.30078125 C-101.30853544 97.83862194 -97.75726958 90.2687011 -94.23046875 82.67578125 C-93.02107992 80.07280198 -91.81152602 77.46989968 -90.6015625 74.8671875 C-90.28848648 74.19372787 -89.97541046 73.52026825 -89.65284729 72.82640076 C-85.73399948 64.40580789 -81.76326427 56.00970594 -77.79296875 47.61328125 C-77.27043015 46.508172 -77.27043015 46.508172 -76.73733521 45.3807373 C-76.39677094 44.66051392 -76.05620667 43.94029053 -75.70532227 43.19824219 C-75.20020111 42.12957664 -75.20020111 42.12957664 -74.68487549 41.0393219 C-74.01629676 39.62604805 -73.34675297 38.2132303 -72.6762085 36.80088806 C-70.93818207 33.13594358 -69.22256091 29.46249108 -67.5378418 25.77270508 C-67.18595795 25.00819534 -66.8340741 24.24368561 -66.4715271 23.45600891 C-65.80451428 22.0052762 -65.14320716 20.55189997 -64.48892212 19.09538269 C-59.61297475 8.5344833 -51.39567396 0.64565842 -40.66796875 -3.82421875 C-26.65428107 -8.67511064 -12.81820968 -7.56330674 0 0 Z " fill="#FCFCFC" transform="translate(664.66796875,395.57421875)"/>
<path d="M0 0 C0.33 0 0.66 0 1 0 C1 81.84 1 163.68 1 248 C-76.88 248 -154.76 248 -235 248 C-235 247.67 -235 247.34 -235 247 C-234.40912598 246.94054199 -233.81825195 246.88108398 -233.20947266 246.81982422 C-185.6298742 241.86380619 -140.32333801 225.40384276 -103 195 C-102.1234375 194.31421875 -101.246875 193.6284375 -100.34375 192.921875 C-85.43853388 181.23692162 -71.60487464 167.98431616 -60 153 C-59.21367188 152.01902344 -58.42734375 151.03804687 -57.6171875 150.02734375 C-23.75642228 107.46257832 -3.57012641 54.13803626 0 0 Z " fill="#FDFDFD" transform="translate(1023,776)"/>
<path d="M0 0 C79.2 0 158.4 0 240 0 C240 79.86 240 159.72 240 242 C239.67 242 239.34 242 239 242 C238.94054199 241.43941895 238.88108398 240.87883789 238.81982422 240.30126953 C235.81422666 212.88557027 229.22093252 186.59962123 219 161 C218.74524902 160.36126953 218.49049805 159.72253906 218.22802734 159.06445312 C207.05501479 131.46466035 190.27131143 105.76705868 170 84 C168.82858546 82.64993836 167.6617058 81.29592486 166.5 79.9375 C159.82797333 72.31669889 152.61263225 65.55123514 144.64746094 59.296875 C143.49006222 58.38577512 142.33747236 57.46854925 141.18847656 56.546875 C119.78757046 39.40017026 96.42503633 26.12551929 71 16 C69.86433594 15.53722656 68.72867188 15.07445312 67.55859375 14.59765625 C46.29764232 6.43240742 22.71416106 2.18260444 0 1 C0 0.67 0 0.34 0 0 Z " fill="#FDFDFD" transform="translate(784,0)"/>
<path d="M0 0 C76.56 0 153.12 0 232 0 C232 0.33 232 0.66 232 1 C230.95328125 1.14695313 229.9065625 1.29390625 228.828125 1.4453125 C205.3639069 4.86822795 182.8780485 9.69840305 161 19 C159.98389648 19.42974121 158.96779297 19.85948242 157.92089844 20.30224609 C138.85083151 28.46872884 121.5647419 38.54877954 105 51 C104.43361816 51.42216797 103.86723633 51.84433594 103.28369141 52.27929688 C87.1977694 64.33580647 72.46487021 78.22784488 60 94 C59.50693359 94.61665527 59.01386719 95.23331055 58.50585938 95.86865234 C31.24872752 130.05769967 13.02096523 170.26951879 4.6875 213.125 C4.5579895 213.79057922 4.428479 214.45615845 4.29504395 215.14190674 C2.83244508 222.73891683 1.57624959 230.28119898 1 238 C0.67 238 0.34 238 0 238 C0 159.46 0 80.92 0 0 Z " fill="#FDFDFD" transform="translate(0,0)"/>
<path d="M0 0 C0.33 0 0.66 0 1 0 C1.03440186 0.59611084 1.06880371 1.19222168 1.10424805 1.80639648 C4.69338583 60.26204364 27.00692009 119.42284018 67.54296875 162.39453125 C69.63544495 164.61342095 71.64417409 166.86970601 73.625 169.1875 C79.84280823 176.31882508 86.55557109 182.67084188 93.953125 188.56640625 C96.09652306 190.27837676 98.20361224 192.00682272 100.296875 193.77734375 C115.07962535 206.14599632 131.58462344 215.82889359 149 224 C150.05832031 224.51820313 151.11664063 225.03640625 152.20703125 225.5703125 C166.25161748 232.31878035 180.62690402 237.27554888 195.85424805 240.49682617 C198.33395824 241.07831243 200.76154017 241.7923744 203.20703125 242.50390625 C209.30724214 244.19308194 215.40775681 244.98376883 221.6875 245.6875 C223.33008789 245.88182617 223.33008789 245.88182617 225.00585938 246.08007812 C227.66979881 246.39416705 230.33436772 246.7006818 233 247 C233 247.33 233 247.66 233 248 C156.11 248 79.22 248 0 248 C0 166.16 0 84.32 0 0 Z " fill="#FDFDFD" transform="translate(0,776)"/>
<path d="M0 0 C10.44058035 7.56102943 18.68109312 17.90228321 21.07421875 30.81640625 C22.54534956 45.31983715 21.62083599 59.18117296 12.39453125 71.0546875 C11.74742187 71.81523437 11.1003125 72.57578125 10.43359375 73.359375 C9.46292969 74.53113281 9.46292969 74.53113281 8.47265625 75.7265625 C-0.22972681 85.33476982 -12.17766026 90.68492688 -24.9921875 91.60546875 C-38.84491486 92.07241462 -51.08318629 88.5374842 -61.75 79.51171875 C-71.85647469 69.9019706 -77.68581157 58.34515447 -78.8046875 44.38671875 C-79.10317075 31.96038959 -75.7473695 21.48592754 -68.56640625 11.359375 C-68.0765625 10.66199219 -67.58671875 9.96460938 -67.08203125 9.24609375 C-51.08515553 -11.14596317 -20.81190986 -13.30441726 0 0 Z " fill="#FCFCFD" transform="translate(710.56640625,260.640625)"/>
<path d="M0 0 C6.93 0 13.86 0 21 0 C21.33 0.99 21.66 1.98 22 3 C14.74 2.34 7.48 1.68 0 1 C0 0.67 0 0.34 0 0 Z " fill="#BEBFBC" transform="translate(784,0)"/>
</svg>
