<?xml version="1.0" encoding="UTF-8"?>
<svg version="1.1" xmlns="http://www.w3.org/2000/svg" width="1024" height="1024">
<path d="M0 0 C337.92 0 675.84 0 1024 0 C1024 337.92 1024 675.84 1024 1024 C686.08 1024 348.16 1024 0 1024 C0 686.08 0 348.16 0 0 Z " fill="#020201" transform="translate(0,0)"/>
<path d="M0 0 C4.23993085 3.19383437 8.34511412 7.44597306 9.16796875 12.82421875 C9.72483742 22.37392411 6.70748793 28.85157848 2.15917969 36.90283203 C0.60488519 39.6763005 -0.89453391 42.47596769 -2.390625 45.28125 C-6.85094821 53.62521996 -11.32742035 61.95549396 -16.1484375 70.09765625 C-23.00438225 81.67772214 -28.92204102 92.51163638 -27.2109375 106.34765625 C-25.40278316 111.92815288 -22.27259552 114.62089684 -17.1484375 117.28515625 C-12.66545668 119.3228748 -8.76693885 120.4671655 -3.83551025 120.49241638 C-2.96650085 120.49931488 -2.09749146 120.50621338 -1.20214844 120.51332092 C-0.25662109 120.5159343 0.68890625 120.51854767 1.66308594 120.52124023 C2.66519104 120.52792725 3.66729614 120.53461426 4.69976807 120.54150391 C6.87577858 120.55554946 9.05180378 120.56744509 11.22783661 120.57745171 C14.67491474 120.59387616 18.12188447 120.61711584 21.56890869 120.64234924 C31.36977727 120.71307776 41.17069045 120.77317752 50.97167969 120.82446289 C56.96748485 120.85631516 62.96316571 120.8976082 68.95886993 120.94465828 C71.24092618 120.96064246 73.52301104 120.97298051 75.80510712 120.98156548 C79.00268621 120.99376607 82.19997498 121.01793682 85.39746094 121.04467773 C86.33489136 121.04526688 87.27232178 121.04585602 88.23815918 121.04646301 C101.58904279 121.19385579 113.80445651 126.11667628 123.5390625 135.28515625 C129.73544239 141.93515107 134.25759399 149.50794865 138.7890625 157.34765625 C154.70878549 185.0750247 154.70878549 185.0750247 182.22851753 199.94308376 C193.20914364 202.66835307 203.77890746 202.91619662 215.046875 202.84375 C217.04930677 202.84390551 219.05173883 202.84540305 221.0541687 202.84815979 C225.22098335 202.84953315 229.38744933 202.83716365 233.55419922 202.81420898 C238.85363299 202.78579079 244.15249058 202.78858637 249.45196724 202.8012991 C253.57706493 202.80830371 257.70203299 202.8004134 261.82711411 202.78804207 C263.77963639 202.7835765 265.73217283 202.7831471 267.6846962 202.78710747 C288.27287374 202.80933658 307.69994627 200.60748941 323.7890625 186.34765625 C330.81223041 178.17450052 336.13123144 168.9969439 341.4140625 159.66015625 C351.02768529 142.6948115 360.98497206 127.70312713 380.70993614 121.76985741 C382.93526732 121.31796693 384.95676199 121.21721061 387.22695923 121.20962524 C388.10990662 121.20417191 388.992854 121.19871857 389.90255737 121.19309998 C390.8636441 121.19205765 391.82473083 121.19101532 392.81494141 121.18994141 C393.83334106 121.18486069 394.85174072 121.17977997 395.90100098 121.17454529 C398.11302455 121.16384587 400.32505892 121.15522401 402.53709793 121.14842606 C406.04353711 121.13662481 409.54985382 121.11716708 413.0562439 121.0953064 C423.02622371 121.03374253 432.99619162 120.97971657 442.96630859 120.94628906 C449.06590619 120.92528859 455.16528133 120.88993903 461.26475143 120.84553146 C463.58422595 120.8314109 465.90373984 120.82265798 468.22325516 120.81947708 C471.47801054 120.81454246 474.73218086 120.79131716 477.98681641 120.76416016 C478.93575775 120.76716629 479.8846991 120.77017242 480.86239624 120.77326965 C490.30013635 120.65692712 498.33036813 118.83389273 505.2265625 112.16015625 C509.05103835 107.72376426 509.2526939 102.65589753 509.0859375 97.01953125 C507.00813435 78.31930291 491.66603759 58.81055285 482.37646484 43.04248047 C480.23138933 39.40093271 478.09410809 35.75528029 475.9765625 32.09765625 C475.37199219 31.06125 474.76742187 30.02484375 474.14453125 28.95703125 C471.091222 23.07919097 471.16853599 16.85881465 471.7890625 10.34765625 C474.35864788 4.91199488 478.6983318 0.81383759 484.15234375 -1.7734375 C490.59613755 -3.92136877 498.18079387 -3.33688855 504.46630859 -0.83569336 C512.39704432 3.20469723 517.53774754 10.22133361 521.9140625 17.72265625 C522.45482422 18.62185791 522.99558594 19.52105957 523.55273438 20.44750977 C525.31931722 23.4023059 527.05793697 26.37195854 528.7890625 29.34765625 C529.39588867 30.38937988 530.00271484 31.43110352 530.62792969 32.50439453 C533.79467057 37.9549222 536.94012903 43.41736136 540.07421875 48.88671875 C543.58274424 55.00306817 547.13981766 61.08939088 550.7265625 67.16015625 C551.26216797 68.06878418 551.79777344 68.97741211 552.34960938 69.91357422 C554.58417469 73.6898218 556.83086497 77.45041966 559.19921875 81.14453125 C571.23664845 99.9544214 572.11019806 117.70128789 572.125 139.3671875 C572.1314414 141.59714337 572.13817072 143.82709843 572.14517212 146.05705261 C572.15709232 150.71424314 572.16085829 155.37135977 572.15966797 160.02856445 C572.15946487 165.95579632 572.18678242 171.88254831 572.22121239 177.80966663 C572.2435961 182.4108848 572.24750204 187.01198945 572.24644852 191.61325645 C572.24878664 193.79663435 572.25750746 195.98001624 572.27311325 198.16333961 C572.37439525 213.79282346 571.62094893 228.63101102 564.0390625 242.72265625 C563.69399658 243.38273682 563.34893066 244.04281738 562.9934082 244.72290039 C553.17400472 262.94619743 536.69131276 274.1359954 517.33203125 280.40234375 C510.74676834 282.15938193 504.40760429 282.49345871 497.64277554 282.47908401 C496.7389898 282.48113665 495.83520407 282.48318928 494.90403089 282.48530412 C491.87158933 282.49096446 488.83919334 282.48951805 485.80674744 282.48809814 C483.61216462 282.49068233 481.41758228 282.49369564 479.22300059 282.49710155 C473.18880344 282.50516848 467.15461819 282.50696095 461.12041628 282.50769901 C454.61373172 282.5095501 448.10705332 282.51709771 441.60037231 282.52383423 C426.62900223 282.53839229 411.65763343 282.54394381 396.68625754 282.54852617 C389.2853058 282.55086337 381.88435484 282.55446615 374.48340371 282.55822155 C349.14087071 282.57105597 323.79833814 282.58177524 298.45580196 282.58522415 C296.86542915 282.58544578 295.27505634 282.58566757 293.68468354 282.5858895 C292.09050763 282.58611014 290.49633172 282.58633062 288.90215582 282.58655095 C285.70405765 282.5869935 282.50595949 282.58744062 279.30786133 282.58789062 C278.11845084 282.58805471 278.11845084 282.58805471 276.90501186 282.58822211 C251.19817269 282.59185215 225.49136172 282.60777073 199.78453335 282.63108099 C172.59507874 282.6556905 145.40564026 282.66939751 118.21617419 282.67059207 C115.23004408 282.67076352 112.24391399 282.67097895 109.25778389 282.6712265 C108.52253411 282.67128227 107.78728433 282.67133804 107.02975425 282.6713955 C95.21006268 282.67254496 83.39040013 282.68355805 71.57071835 282.69811356 C59.68479887 282.71249726 47.79891648 282.71570497 35.91299068 282.70767358 C29.47689932 282.703768 23.04090534 282.70469238 16.60482597 282.71873093 C10.70825157 282.73147494 4.81184768 282.73026773 -1.0847265 282.71814021 C-3.21328688 282.71618411 -5.34185935 282.7192576 -7.47040273 282.72798458 C-22.09509452 282.78412969 -35.99203123 282.40230571 -49.2109375 275.34765625 C-50.13261719 274.87714844 -51.05429688 274.40664063 -52.00390625 273.921875 C-69.06676265 264.67305633 -81.66285729 250.00891361 -87.63522339 231.42826843 C-91.065403 219.03171024 -90.55639811 206.30231068 -90.58203125 193.55078125 C-90.5910152 191.22971545 -90.60013732 188.90865019 -90.60939026 186.58758545 C-90.6258173 181.73611044 -90.63356898 176.88470393 -90.63647461 172.03320312 C-90.64185432 165.85587676 -90.67954584 159.67920547 -90.72521877 153.50206375 C-90.75514564 148.71126016 -90.76220154 143.92061148 -90.76320076 139.1297226 C-90.76737136 136.85422513 -90.77967635 134.57872583 -90.80071831 132.30332184 C-91.01550238 107.07282781 -83.31139439 89.90785688 -70.34375 68.54296875 C-67.46201155 63.78589714 -64.66679044 58.98384849 -61.8984375 54.16015625 C-55.72128707 43.41927314 -49.32419831 32.81125235 -42.92822266 22.19970703 C-40.7597102 18.59826227 -38.59987923 14.99164817 -36.44165039 11.3840332 C-32.42975562 4.74582367 -26.69039552 0.14897414 -19.2265625 -2.3046875 C-12.49056749 -3.4665161 -6.02124395 -3.45664005 0 0 Z " fill="#FDFDFD" transform="translate(271.2109375,478.65234375)"/>
<path d="M0 0 C10.69954033 6.87588015 18.13550184 16.39183291 21.58984375 28.69921875 C21.875 30.625 21.875 30.625 21.9375 34.375 C22.00904297 35.50421875 22.00904297 35.50421875 22.08203125 36.65625 C22.62138898 49.28121616 17.48221898 60.33247022 12.25 71.5 C11.5818816 72.94624496 10.91458217 74.3928685 10.24804688 75.83984375 C8.16105328 80.35934122 6.05252364 84.86856247 3.9375 89.375 C3.60071228 90.09264526 3.26392456 90.81029053 2.91693115 91.54968262 C-0.07453469 97.91982851 -3.07418129 104.28610076 -6.08325195 110.64794922 C-10.62797034 120.26586556 -15.0613068 129.92939187 -19.4375 139.625 C-25.97520493 154.10391237 -32.74946059 168.46419646 -39.57130432 182.81103516 C-39.94480515 183.59655762 -40.31830597 184.38208008 -40.703125 185.19140625 C-41.07376572 185.97080566 -41.44440643 186.75020508 -41.82627869 187.55322266 C-47.08094154 198.61136435 -52.24594511 209.71129167 -57.40673828 220.81347656 C-58.80780745 223.82715941 -60.21042202 226.84011243 -61.61386108 229.85269165 C-66.92350733 241.25210323 -72.20451304 252.66174984 -77.375 264.125 C-80.35750551 270.72878386 -83.45183726 277.24592177 -86.7434082 283.70043945 C-90.01521935 290.17070999 -93.07242589 296.74035717 -96.13165283 303.31286621 C-97.0582196 305.30330491 -97.98674183 307.29282238 -98.91552734 309.28222656 C-101.46617508 314.75192332 -104.00832593 320.2236669 -106.4609375 325.73828125 C-112.44644347 339.11319498 -118.43822228 348.0844263 -132.3125 353.6875 C-141.72532145 355.41318393 -149.33855918 355.36313198 -157.62109375 350.203125 C-164.5711273 344.99893988 -168.90542259 338.80859756 -171.0625 330.375 C-171.62791598 324.35253519 -171.60252272 318.36454253 -171.55859375 312.3203125 C-171.55874906 310.56973206 -171.56024328 308.81915127 -171.56300354 307.068573 C-171.56438214 303.41225854 -171.55192289 299.75633889 -171.52905273 296.10009766 C-171.50071211 291.44471857 -171.50340127 286.78999655 -171.51614285 282.13456917 C-171.52314431 278.52255781 -171.51525944 274.91069465 -171.50288582 271.29870224 C-171.49841158 269.5837346 -171.49799873 267.86875081 -171.50195122 266.15378189 C-171.51981534 251.58183792 -169.32464789 240.01384378 -162.6875 226.875 C-161.59725835 224.65968999 -160.50877809 222.44351243 -159.421875 220.2265625 C-158.86306641 219.09250977 -158.30425781 217.95845703 -157.72851562 216.79003906 C-155.05589067 211.31162788 -152.49418303 205.78325193 -149.9375 200.25 C-149.40745361 199.1050708 -148.87740723 197.9601416 -148.33129883 196.78051758 C-146.88911604 193.66291659 -145.44857116 190.54457078 -144.00909424 187.42572021 C-143.01409237 185.27012877 -142.01857378 183.11477655 -141.02294922 180.95947266 C-135.32024269 168.61381142 -129.62398651 156.26517674 -123.9284668 143.91619873 C-118.69505091 132.56925332 -113.45952921 121.22328417 -108.21936035 109.87945557 C-107.44152264 108.19553582 -106.66377345 106.51157518 -105.8861084 104.82757568 C-96.9424551 85.46099563 -87.97006817 66.10852007 -78.875 46.8125 C-78.36439529 45.72710434 -78.36439529 45.72710434 -77.84347534 44.61978149 C-75.60375329 39.8615256 -73.34478757 35.11298913 -71.0625 30.375 C-70.7178772 29.6581604 -70.37325439 28.9413208 -70.01818848 28.20275879 C-68.96941404 26.03087218 -67.91027259 23.86436183 -66.84765625 21.69921875 C-66.37547417 20.72014809 -66.37547417 20.72014809 -65.89375305 19.72129822 C-60.96419354 9.76911363 -53.89298063 3.29024032 -44.0625 -1.625 C-43.340625 -2.0375 -42.61875 -2.45 -41.875 -2.875 C-29.10974074 -9.25762963 -12.04197654 -6.60840176 0 0 Z " fill="#FDFDFD" transform="translate(490.0625,178.625)"/>
<path d="M0 0 C0.70769531 -0.00773437 1.41539062 -0.01546875 2.14453125 -0.0234375 C14.20855612 0.02067228 24.64499656 4.72620473 33.39453125 12.94921875 C41.98664531 22.33837494 45.70285607 31.75235033 45.875 44.25 C45.88909912 44.99773682 45.90319824 45.74547363 45.91772461 46.51586914 C45.83456873 56.14826775 41.72338829 64.33389032 37.75 72.9375 C37.07868042 74.40292236 37.07868042 74.40292236 36.39379883 75.89794922 C34.07404072 80.93430456 31.70023088 85.93140667 29.1875 90.875 C25.21435611 98.69192961 21.5698563 106.65683758 17.89135742 114.61572266 C13.46920216 124.1802903 8.99508608 133.71950913 4.5 143.25 C0.10834892 152.56206239 -4.26759582 161.88047536 -8.58642578 171.2265625 C-10.16669738 174.64253233 -11.75624856 178.05404996 -13.34765625 181.46484375 C-15.24891831 185.54050025 -17.12527741 189.62581954 -18.97518921 193.72503662 C-27.11003712 211.69861504 -34.16774743 225.9031291 -52.9140625 234.3359375 C-62.89129246 237.86263208 -77.39247743 237.93207012 -87.3359375 234.29296875 C-91.36990949 232.34879814 -94.94266084 229.95782533 -98.5 227.25 C-99.1290625 226.7859375 -99.758125 226.321875 -100.40625 225.84375 C-108.38942183 219.54124592 -113.02690416 210.94589018 -115.1875 201.125 C-116.36270486 186.55245979 -114.45545213 176.72154918 -107.82617188 163.83642578 C-104.64494199 157.6444914 -101.78421656 151.33379621 -98.99755859 144.95556641 C-96.71207538 139.77824728 -94.25280539 134.70895819 -91.70703125 129.65625 C-87.55730662 121.41974243 -83.60533772 113.09875881 -79.6875 104.75 C-78.20283422 101.59327363 -76.71674845 98.43721676 -75.23046875 95.28125 C-74.84849335 94.46978516 -74.46651794 93.65832031 -74.07296753 92.82226562 C-71.22683711 86.78037478 -68.3617109 80.74769994 -65.48828125 74.71875 C-65.07096237 73.84263062 -64.65364349 72.96651123 -64.22367859 72.06384277 C-60.94372492 65.17848303 -60.94372492 65.17848303 -59.32846069 61.79858398 C-58.19619865 59.42914196 -57.06606314 57.05870593 -55.9375 54.6875 C-55.39224922 53.54217049 -55.39224922 53.54217049 -54.83598328 52.373703 C-52.8626902 48.20496093 -50.93901086 44.01830568 -49.06494141 39.80395508 C-48.66307617 38.90052368 -48.26121094 37.99709229 -47.84716797 37.06628418 C-47.07986009 35.33350793 -46.31735284 33.5985948 -45.56054688 31.86120605 C-42.94570971 25.94451627 -39.99365873 20.95512503 -35.5 16.25 C-34.98308594 15.64542969 -34.46617187 15.04085938 -33.93359375 14.41796875 C-24.86779985 4.39098225 -13.23707426 -0.14466748 0 0 Z " fill="#FCFCFC" transform="translate(552.5,312.75)"/>
<path d="M0 0 C0.33 0 0.66 0 1 0 C1 83.16 1 166.32 1 252 C-83.15 252 -167.3 252 -254 252 C-254 251.67 -254 251.34 -254 251 C-252.30423828 250.96132813 -252.30423828 250.96132813 -250.57421875 250.921875 C-187.52137287 248.93669295 -127.43595127 223.74635903 -82 180 C-81.14075928 179.17363037 -81.14075928 179.17363037 -80.26416016 178.33056641 C-72.63306866 170.9469029 -65.51136825 163.40753593 -59 155 C-58.21367188 154.01902344 -57.42734375 153.03804687 -56.6171875 152.02734375 C-37.78014456 128.36200663 -23.88552111 101.51411055 -14 73 C-13.5364209 71.67548828 -13.5364209 71.67548828 -13.06347656 70.32421875 C-5.22596123 47.64920252 -1.49109256 23.908898 0 0 Z " fill="#FCFCFD" transform="translate(1023,772)"/>
<path d="M0 0 C0.33 0 0.66 0 1 0 C1.06469482 0.82910889 1.12938965 1.65821777 1.19604492 2.51245117 C2.55332255 19.36016938 4.21922702 35.71621677 9 52 C9.24153809 52.82419434 9.48307617 53.64838867 9.73193359 54.49755859 C11.38072304 60.03546912 13.16109333 65.52273057 15 71 C15.38800781 72.1859375 15.77601562 73.371875 16.17578125 74.59375 C24.38196393 98.73289906 36.56962903 121.7186094 52 142 C52.77085938 143.05445313 53.54171875 144.10890625 54.3359375 145.1953125 C58.4766177 150.83398622 62.77480562 156.15798025 67.56640625 161.2578125 C69 163 69 163 69 165 C69.99 165.33 70.98 165.66 72 166 C72 166.66 72 167.32 72 168 C72.57621094 168.23589844 73.15242188 168.47179687 73.74609375 168.71484375 C76.50059622 170.28543528 78.02835611 172.13293375 80.0625 174.5625 C84.91006843 180.07217534 90.24596016 184.47476407 96 189 C97.12489702 189.9331911 98.24718482 190.86953415 99.3671875 191.80859375 C108.385512 199.30682367 117.88920136 205.6638043 127.91845703 211.73242188 C129.62558511 212.771996 131.31372028 213.84269932 132.99609375 214.921875 C150.69321562 225.96614125 171.12426273 233.03017634 191 239 C191.71881348 239.21736816 192.43762695 239.43473633 193.17822266 239.65869141 C213.1855528 245.55605939 234.22758896 247.58371922 255 248 C255 248.33 255 248.66 255 249 C170.85 249 86.7 249 0 249 C0 166.83 0 84.66 0 0 Z " fill="#FDFDFD" transform="translate(0,775)"/>
<path d="M0 0 C79.2 0 158.4 0 240 0 C240 86.79 240 173.58 240 263 C239.67 263 239.34 263 239 263 C238.95512451 262.00371582 238.91024902 261.00743164 238.86401367 259.98095703 C237.9609495 234.31235459 237.9609495 234.31235459 234 209 C233.82597656 208.21882812 233.65195312 207.43765625 233.47265625 206.6328125 C229.78480755 190.30454448 224.91221981 174.26745458 218 159 C217.67580078 158.27538574 217.35160156 157.55077148 217.01757812 156.80419922 C194.90877576 107.7096528 160.28699961 67.98489632 115 39 C114.00734131 38.36118896 114.00734131 38.36118896 112.99462891 37.70947266 C104.26549878 32.1359331 95.35107846 27.72400615 85.79248047 23.75683594 C83.2698555 22.69171234 80.79302173 21.53425689 78.3125 20.375 C65.67219242 14.6598683 53.00342497 10.95915301 39.55810547 7.63720703 C37.52461972 7.13067928 35.49740847 6.59897613 33.47265625 6.05859375 C22.53124689 3.25348075 11.20105602 2.27773386 0 1 C0 0.67 0 0.34 0 0 Z " fill="#FDFCFD" transform="translate(784,0)"/>
<path d="M0 0 C78.87 0 157.74 0 239 0 C239 0.33 239 0.66 239 1 C237.71351563 1.14695313 236.42703125 1.29390625 235.1015625 1.4453125 C220.13171516 3.26230738 205.60910123 6.28540752 191 10 C190.1759668 10.20882813 189.35193359 10.41765625 188.50292969 10.6328125 C176.86258083 13.64974957 165.96039461 18.09156918 155 23 C154.26749023 23.32371582 153.53498047 23.64743164 152.78027344 23.98095703 C136.40481321 31.25195709 121.3004174 40.21709033 107 51 C106.43216797 51.42361816 105.86433594 51.84723633 105.27929688 52.28369141 C96.21854681 59.07414643 87.86947396 66.48936854 79.71923828 74.34375 C78.15299199 75.85261322 76.57552771 77.34872949 74.99609375 78.84375 C68.38958108 85.23411788 62.77711656 92.11770323 57.22851562 99.41308594 C55.56857192 101.55728985 53.8103275 103.61466325 52.0625 105.6875 C29.91677214 133.47114228 15.05119253 168.43773344 7.375 202.9375 C7.22658661 203.59533478 7.07817322 204.25316956 6.92526245 204.93093872 C4.09936347 217.521482 2.23367671 230.15179786 1 243 C0.67 243 0.34 243 0 243 C0 162.81 0 82.62 0 0 Z " fill="#FDFDFD" transform="translate(0,0)"/>
<path d="M0 0 C0.7321875 0.32871094 1.464375 0.65742188 2.21875 0.99609375 C12.74090964 6.20312138 20.09951223 14.94278811 24.04418945 25.90063477 C25.51301288 31.16044907 25.28572568 36.50492179 25.265625 41.92578125 C25.26753845 43.06855026 25.2694519 44.21131927 25.27142334 45.38871765 C25.27278074 47.80008159 25.26911549 50.21145295 25.26074219 52.62280273 C25.25006632 56.28972033 25.26063768 59.95614472 25.2734375 63.62304688 C25.27211525 65.9739594 25.2695515 68.32487163 25.265625 70.67578125 C25.26967346 71.76151932 25.27372192 72.84725739 25.27789307 73.96589661 C25.17856252 90.31664104 20.31686776 104.43653945 8.625 116.125 C-3.2813379 127.45634973 -18.40542312 134.01630711 -35.00195312 134.17700195 C-36.16335815 134.18983719 -37.32476318 134.20267242 -38.5213623 134.21589661 C-39.76212524 134.22328354 -41.00288818 134.23067047 -42.28125 134.23828125 C-43.56809692 134.246353 -44.85494385 134.25442474 -46.18078613 134.26274109 C-48.89737816 134.27770531 -51.61394463 134.2875753 -54.33056641 134.29516602 C-57.80071521 134.30625535 -61.27022725 134.34071006 -64.74015045 134.38033772 C-68.06632431 134.41282937 -71.39242975 134.41728193 -74.71875 134.42578125 C-75.95951294 134.44328934 -77.20027588 134.46079742 -78.4786377 134.47883606 C-89.24051291 134.451727 -89.24051291 134.451727 -94 130 C-98.08350371 124.59211671 -99.4499731 120.77991696 -99 114 C-98.09671825 111.44311281 -97.16750461 109.15474973 -96 106.73046875 C-95.53285583 105.71922188 -95.53285583 105.71922188 -95.05627441 104.68754578 C-94.04958067 102.51500863 -93.02496506 100.35146794 -92 98.1875 C-91.30264095 96.69026507 -90.60668174 95.19237737 -89.91210938 93.69384766 C-88.55328522 90.76434739 -87.18901087 87.83749651 -85.8203125 84.91259766 C-83.64923046 80.26153411 -81.5585797 75.57683512 -79.5 70.875 C-77.01620889 65.21341732 -74.42275329 59.60834428 -71.79881287 54.01066589 C-69.96769584 50.09667915 -68.1651519 46.17148214 -66.39309692 42.23040771 C-65.24672937 39.68338639 -64.08876922 37.14170941 -62.92993164 34.6003418 C-62.34857805 33.31835322 -61.77212354 32.03413241 -61.20043945 30.74780273 C-54.75953001 16.28173525 -46.88911352 5.06418648 -31.9375 -1.4375 C-22.02481405 -4.70882737 -9.41648662 -4.61482578 0 0 Z " fill="#FCFCFC" transform="translate(670,415)"/>
<path d="M0 0 C11.25793886 7.35324045 18.23086108 17.53585348 22.1875 30.3125 C24.92950548 44.73113558 21.32214882 57.19952629 13.796875 69.484375 C6.05916155 80.17541419 -5.26067173 87.19413926 -18.25 89.3125 C-32.24121711 90.39559528 -43.68921728 87.98965071 -54.82421875 79.3046875 C-64.34508007 71.13581695 -72.20529738 60.18798652 -73.44287109 47.3046875 C-74.06908718 30.8484879 -70.88097709 18.79817419 -59.4453125 6.34765625 C-42.93207166 -9.3090887 -19.40919549 -10.71984797 0 0 Z " fill="#FCFCFC" transform="translate(720.25,263.6875)"/>
</svg>
